<svg width="24" height="23" viewBox="0 0 24 23" fill="none" xmlns="http://www.w3.org/2000/svg">
<path d="M4.8 4.90156C4.8 2.24956 6.948 0.101562 9.6 0.101562C12.252 0.101562 14.4 2.24956 14.4 4.90156C14.4 7.55356 12.252 9.70156 9.6 9.70156C6.948 9.70156 4.8 7.55356 4.8 4.90156ZM12 17.1416C12 15.9896 12.6 14.9096 13.44 14.1896V13.9016C13.44 13.4336 13.524 12.9896 13.656 12.5576C12.42 12.2696 11.052 12.1016 9.6 12.1016C4.296 12.1016 0 14.2496 0 16.9016V19.3016H12V17.1416ZM24 17.2616V21.4616C24 22.1816 23.28 22.9016 22.44 22.9016H15.84C15.12 22.9016 14.4 22.1816 14.4 21.3416V17.1416C14.4 16.4216 15.12 15.7016 15.84 15.7016V13.9016C15.84 12.2216 17.52 10.9016 19.2 10.9016C20.88 10.9016 22.56 12.2216 22.56 13.9016V15.7016C23.28 15.7016 24 16.4216 24 17.2616ZM21 13.9016C21 12.9416 20.16 12.3416 19.2 12.3416C18.24 12.3416 17.4 12.9416 17.4 13.9016V15.7016H21V13.9016Z" fill="white"/>
</svg>
