<svg width="24" height="19" viewBox="0 0 24 19" fill="none" xmlns="http://www.w3.org/2000/svg">
<path d="M12 11.0876C13.441 11.0876 14.7454 10.4947 15.6897 9.53653C16.633 8.57941 17.2174 7.25596 17.2174 5.79381C17.2174 4.33166 16.633 3.00821 15.6897 2.05109C14.7454 1.09291 13.441 0.5 12 0.5C10.559 0.5 9.25461 1.09291 8.31026 2.05109C7.36696 3.00821 6.78261 4.33166 6.78261 5.79381C6.78261 7.25596 7.36696 8.57941 8.31026 9.53653C8.79424 10.029 9.36936 10.4195 10.0026 10.6857C10.6358 10.9519 11.3146 11.0885 12 11.0876ZM20.3478 12.1464C20.6906 12.1471 21.0301 12.0791 21.3469 11.9463C21.6638 11.8135 21.9516 11.6186 22.194 11.3727C22.4364 11.1267 22.6285 10.8347 22.7593 10.5132C22.8902 10.1918 22.9572 9.84726 22.9565 9.49947C22.9565 8.76893 22.6654 8.1072 22.1927 7.62758C21.9507 7.38143 21.6631 7.18625 21.3465 7.05324C21.0299 6.92024 20.6905 6.85204 20.3478 6.85257C20.0051 6.85187 19.6655 6.91986 19.3487 7.05263C19.0319 7.1854 18.744 7.38034 18.5017 7.62627C18.2593 7.8722 18.0672 8.16427 17.9363 8.48572C17.8054 8.80717 17.7384 9.15168 17.7391 9.49947C17.7386 9.84722 17.8057 10.1917 17.9366 10.5131C18.0675 10.8344 18.2596 11.1265 18.502 11.3724C18.7443 11.6183 19.0321 11.8132 19.3489 11.946C19.6656 12.0788 20.0051 12.1469 20.3478 12.1464ZM20.3478 12.771C18.959 12.771 17.9144 13.2009 17.304 13.7959C16.1405 12.825 14.3009 12.1464 12 12.1464C9.63548 12.1464 7.8313 12.8324 6.68661 13.8023C6.0647 13.2041 5.0087 12.771 3.65217 12.771C1.36904 12.771 0 13.9251 0 15.0813C0 15.6583 1.36904 16.2374 3.65217 16.2374C4.28243 16.2374 4.848 16.1834 5.34574 16.0966L5.304 16.3825C5.304 17.4412 7.81461 18.5 12 18.5C15.9256 18.5 18.696 17.4412 18.696 16.3825L18.6751 16.1125C19.1583 16.1898 19.7134 16.2374 20.3478 16.2374C22.488 16.2374 24 15.6583 24 15.0813C24 13.9251 22.5673 12.771 20.3478 12.771ZM3.65217 12.1464C4.37217 12.1464 5.02435 11.851 5.49704 11.3714C5.73964 11.1258 5.93201 10.834 6.06309 10.5128C6.19418 10.1915 6.26139 9.84716 6.26087 9.49947C6.26156 9.15168 6.19455 8.80717 6.06369 8.48572C5.93284 8.16427 5.74071 7.8722 5.49833 7.62627C5.25596 7.38034 4.9681 7.1854 4.65129 7.05263C4.33448 6.91986 3.99495 6.85187 3.65217 6.85257C3.30944 6.85201 2.96997 6.92009 2.65322 7.05291C2.33647 7.18574 2.04867 7.38068 1.80632 7.62658C1.56397 7.87248 1.37184 8.1645 1.24093 8.48588C1.11003 8.80727 1.04293 9.15172 1.04348 9.49947C1.04279 9.84726 1.1098 10.1918 1.24065 10.5132C1.37151 10.8347 1.56364 11.1267 1.80601 11.3727C2.04839 11.6186 2.33624 11.8135 2.65306 11.9463C2.96987 12.0791 3.3094 12.1471 3.65217 12.1464Z" fill="white"/>
</svg>
