<svg width="24" height="23" viewBox="0 0 24 23" fill="none" xmlns="http://www.w3.org/2000/svg">
<path d="M5.784 16.4286L10.8 18.9257V21.9048H2.4C1.068 21.9048 0 20.93 0 19.7143V2.19048C0 1.60953 0.252856 1.05237 0.702944 0.641576C1.15303 0.230782 1.76348 0 2.4 0H3.6V7.66667L6.6 6.02381L9.6 7.66667V0H16.8C17.4365 0 18.047 0.230782 18.4971 0.641576C18.9471 1.05237 19.2 1.60953 19.2 2.19048V11.5438L17.4 10.6457L5.784 16.4286ZM24 16.4286L17.4 13.1429L10.8 16.4286L17.4 19.7143L24 16.4286ZM13.2 18.7176V20.9081L17.4 23L21.6 20.9081V18.7176L17.4 20.8095L13.2 18.7176Z" fill="white"/>
</svg>
