<svg width="24" height="24" viewBox="0 0 24 24" fill="none" xmlns="http://www.w3.org/2000/svg">
<path fill-rule="evenodd" clip-rule="evenodd" d="M12.8631 0.351347C12.6381 0.12638 12.3329 0 12.0147 0C11.6965 0 11.3914 0.12638 11.1663 0.351347L2.76635 8.75144L0.366346 11.1515C0.251734 11.2622 0.160315 11.3946 0.0974242 11.541C0.0345334 11.6874 0.00142989 11.8449 4.53081e-05 12.0042C-0.00133927 12.1635 0.0290228 12.3215 0.0893599 12.469C0.149697 12.6165 0.238801 12.7505 0.351472 12.8632C0.464143 12.9758 0.598125 13.0649 0.745601 13.1253C0.893077 13.1856 1.05109 13.216 1.21043 13.2146C1.36976 13.2132 1.52723 13.1801 1.67363 13.1172C1.82004 13.0543 1.95245 12.9629 2.06315 12.8483L2.41475 12.4967V20.4C2.41475 21.3548 2.79403 22.2704 3.46916 22.9456C4.14429 23.6207 5.05997 24 6.01475 24H18.0147C18.9695 24 19.8852 23.6207 20.5603 22.9456C21.2355 22.2704 21.6147 21.3548 21.6147 20.4V12.4967L21.9663 12.8483C22.1927 13.0669 22.4958 13.1878 22.8104 13.1851C23.1251 13.1824 23.426 13.0562 23.6485 12.8337C23.871 12.6112 23.9972 12.3102 24 11.9956C24.0027 11.6809 23.8817 11.3778 23.6631 11.1515L12.8631 0.351347Z" fill="white"/>
</svg>
