<svg width="24" height="23" viewBox="0 0 24 23" fill="none" xmlns="http://www.w3.org/2000/svg">
<path d="M24 13.8752V19.3016C24 20.2563 23.6207 21.172 22.9456 21.8471C22.2705 22.5223 21.3548 22.9016 20.4 22.9016H3.6C2.64522 22.9016 1.72955 22.5223 1.05442 21.8471C0.379285 21.172 0 20.2563 0 19.3016V13.8752L0.6636 14.2076C4.18071 15.979 8.06404 16.9016 12.0021 16.9011C15.9401 16.9007 19.8233 15.9774 23.34 14.2052L24 13.8752ZM14.4 0.101562C15.3548 0.101563 16.2705 0.480847 16.9456 1.15598C17.6207 1.83111 18 2.74678 18 3.70156V4.90156H20.4C21.3548 4.90156 22.2705 5.28085 22.9456 5.95598C23.6207 6.63111 24 7.54678 24 8.50156V11.192L22.2636 12.0608C19.1568 13.6269 15.7329 14.4612 12.2539 14.4999C8.77491 14.5386 5.33322 13.7806 2.1924 12.284L1.416 11.9L0 11.192V8.50156C0 7.54678 0.379285 6.63111 1.05442 5.95598C1.72955 5.28085 2.64522 4.90156 3.6 4.90156H6V3.70156C6 2.74678 6.37929 1.83111 7.05442 1.15598C7.72955 0.480847 8.64522 0.101563 9.6 0.101562H14.4ZM12 9.70156C11.6817 9.70156 11.3765 9.82799 11.1515 10.053C10.9264 10.2781 10.8 10.5833 10.8 10.9016C10.7992 11.0591 10.8295 11.2153 10.889 11.3612C10.9486 11.5071 11.0364 11.6399 11.1472 11.7518C11.2581 11.8638 11.3899 11.9529 11.5352 12.0139C11.6805 12.075 11.8364 12.1068 11.994 12.1076C12.1516 12.1083 12.3078 12.0781 12.4537 12.0185C12.5996 11.9589 12.7323 11.8712 12.8443 11.7603C12.9563 11.6495 13.0453 11.5176 13.1064 11.3723C13.1674 11.227 13.1992 11.0711 13.2 10.9136C13.2 10.2392 12.6624 9.70156 12 9.70156ZM14.4 2.50156H9.6C9.28174 2.50156 8.97652 2.62799 8.75147 2.85303C8.52643 3.07808 8.4 3.3833 8.4 3.70156V4.90156H15.6V3.70156C15.6 3.3833 15.4736 3.07808 15.2485 2.85303C15.0235 2.62799 14.7183 2.50156 14.4 2.50156Z" fill="white"/>
</svg>
