<svg width="51" height="56" viewBox="0 0 51 56" fill="none" xmlns="http://www.w3.org/2000/svg">
<path d="M45.2525 5.6H33.4303C32.2424 2.352 29.1313 0 25.4545 0C21.7778 0 18.6667 2.352 17.4788 5.6H5.65657C2.54545 5.6 0 8.12 0 11.2V50.4C0 53.48 2.54545 56 5.65657 56H45.2525C48.3636 56 50.9091 53.48 50.9091 50.4V11.2C50.9091 8.12 48.3636 5.6 45.2525 5.6ZM25.4545 5.6C27.0101 5.6 28.2828 6.86 28.2828 8.4C28.2828 9.94 27.0101 11.2 25.4545 11.2C23.899 11.2 22.6263 9.94 22.6263 8.4C22.6263 6.86 23.899 5.6 25.4545 5.6ZM28.2828 44.8H14.1414C12.5859 44.8 11.3131 43.54 11.3131 42C11.3131 40.46 12.5859 39.2 14.1414 39.2H28.2828C29.8384 39.2 31.1111 40.46 31.1111 42C31.1111 43.54 29.8384 44.8 28.2828 44.8ZM36.7677 33.6H14.1414C12.5859 33.6 11.3131 32.34 11.3131 30.8C11.3131 29.26 12.5859 28 14.1414 28H36.7677C38.3232 28 39.596 29.26 39.596 30.8C39.596 32.34 38.3232 33.6 36.7677 33.6ZM36.7677 22.4H14.1414C12.5859 22.4 11.3131 21.14 11.3131 19.6C11.3131 18.06 12.5859 16.8 14.1414 16.8H36.7677C38.3232 16.8 39.596 18.06 39.596 19.6C39.596 21.14 38.3232 22.4 36.7677 22.4Z" fill="#5576D9"/>
</svg>
