<svg width="800" height="800" viewBox="0 0 800 800" fill="none" xmlns="http://www.w3.org/2000/svg">
<circle cx="400" cy="400" r="400" fill="#D9D9D9"/>
<path d="M238.12 367.538L238.12 241.473L262.81 241.473L262.81 367.538L238.12 367.538Z" fill="#27314B"/>
<path d="M307.533 367.538V197H331.877V346.343H424.14V367.538H307.533Z" fill="#27314B"/>
<path d="M535.083 603.612C522.677 603.612 511.569 600.58 501.759 594.516C491.949 588.308 484.231 579.357 478.605 567.663C472.979 555.969 470.166 541.821 470.166 525.218C470.166 508.616 472.979 494.467 478.605 482.773C484.231 471.079 491.949 462.2 501.759 456.137C511.569 449.929 522.677 446.825 535.083 446.825C547.634 446.825 558.742 449.929 568.407 456.137C578.217 462.2 585.935 471.079 591.561 482.773C597.187 494.467 600 508.616 600 525.218C600 541.821 597.187 555.969 591.561 567.663C585.935 579.357 578.217 588.308 568.407 594.516C558.742 600.58 547.634 603.612 535.083 603.612ZM535.083 573.943C540.998 573.943 546.119 572.283 550.447 568.963C554.919 565.642 558.381 560.373 560.833 553.154C563.43 545.935 564.728 536.623 564.728 525.218C564.728 513.813 563.43 504.501 560.833 497.282C558.381 490.064 554.919 484.794 550.447 481.474C546.119 478.153 540.998 476.493 535.083 476.493C529.313 476.493 524.191 478.153 519.719 481.474C515.392 484.794 511.929 490.064 509.333 497.282C506.88 504.501 505.654 513.813 505.654 525.218C505.654 536.623 506.88 545.935 509.333 553.154C511.929 560.373 515.392 565.642 519.719 568.963C524.191 572.283 529.313 573.943 535.083 573.943Z" fill="#27314B"/>
<path d="M236.364 197H262.81V214.043L236.364 223.446V197Z" fill="#DC143C"/>
<path fill-rule="evenodd" clip-rule="evenodd" d="M449.641 197V367.538H473.984V315.889H516.099C531.03 315.889 543.77 313.534 554.319 308.824C564.868 303.952 572.983 297.13 578.663 288.36C584.343 279.427 587.183 268.788 587.183 256.445C587.183 244.101 584.343 233.463 578.663 224.53C572.983 215.597 564.868 208.775 554.319 204.065C543.77 199.355 531.03 197 516.099 197H449.641ZM473.984 294.694H515.369C530.949 294.694 542.715 291.364 550.668 284.705C558.782 278.046 562.839 268.626 562.839 256.445C562.839 244.263 558.782 234.843 550.668 228.184C542.715 221.525 530.949 218.195 515.369 218.195C515.369 218.195 490.146 218.195 473.984 218.195C473.984 213.438 473.984 206.014 473.984 206.014L463.03 218.195C463.03 218.195 469.706 218.195 473.984 218.195C473.984 248.07 473.984 294.694 473.984 294.694Z" fill="#27314B"/>
<path d="M473.984 206.014L463.03 218.195H473.984V206.014Z" fill="#27314B"/>
<path fill-rule="evenodd" clip-rule="evenodd" d="M226.4 599.497C236.786 602.24 247.245 603.612 257.776 603.612C272.202 603.612 284.031 601.302 293.264 596.682C302.497 592.062 309.349 586.071 313.821 578.708C318.293 571.2 320.529 563.188 320.529 554.67C320.529 541.532 315.769 530.776 306.247 522.403C299.581 516.54 290.686 512.729 279.563 510.971L313.605 472.162V449.423H207.574V477.576H272.02L240.898 512.874V536.046H256.911C266.864 536.046 274.077 537.706 278.55 541.027C283.022 544.347 285.258 548.895 285.258 554.67C285.258 560.733 282.733 565.498 277.684 568.963C272.635 572.427 265.71 574.16 256.911 574.16C249.12 574.16 241.403 572.933 233.757 570.478C226.111 568.024 219.403 564.704 213.633 560.517L200 587.37C207.213 592.567 216.013 596.61 226.4 599.497ZM286.989 477.576H272.02L283.094 465.016L286.989 477.576Z" fill="#27314B"/>
<path d="M286.989 477.576L283.094 465.016L272.02 477.576H286.989Z" fill="#27314B"/>
<path fill-rule="evenodd" clip-rule="evenodd" d="M366.143 594.949C376.386 600.724 388.432 603.612 402.281 603.612C413.1 603.612 422.765 601.59 431.277 597.548C439.932 593.361 446.785 587.514 451.834 580.007C457.027 572.355 459.624 563.404 459.624 553.154C459.624 543.625 457.244 535.324 452.483 528.25C447.867 521.176 441.664 515.69 433.873 511.792C426.083 507.894 417.284 505.945 407.474 505.945C400.261 505.945 393.625 506.955 387.566 508.976C381.651 510.853 376.53 513.741 372.202 517.639C371.475 518.27 370.77 518.927 370.087 519.611C370.555 505.506 374.361 494.742 381.507 487.321C389.153 479.38 399.54 475.41 412.667 475.41C417.861 475.41 422.838 475.988 427.598 477.143C432.359 478.153 436.831 480.102 441.014 482.99L453.998 457.219C448.66 453.755 442.313 451.156 434.955 449.423C427.598 447.691 419.88 446.825 411.802 446.825C396.654 446.825 383.238 450.001 371.553 456.353C360.012 462.706 350.924 471.945 344.288 484.072C337.796 496.2 334.551 510.998 334.551 528.467C334.551 544.78 337.291 558.496 342.773 569.612C348.255 580.729 356.045 589.174 366.143 594.949ZM370.038 522.62C370.038 521.6 370.055 520.597 370.087 519.611C369.755 519.944 369.427 520.284 369.105 520.63C366.157 523.797 363.655 527.492 361.599 531.715L371.337 540.81C370.616 537.634 370.183 534.458 370.038 531.282V522.62ZM413.316 574.81C409.566 576.542 405.238 577.408 400.333 577.408C394.707 577.408 389.946 576.47 386.051 574.593C382.156 572.572 379.127 569.901 376.963 566.58C374.799 563.116 373.717 559.218 373.717 554.886C373.717 550.411 374.799 546.513 376.963 543.192C379.271 539.727 382.373 537.057 386.268 535.18C390.163 533.159 394.707 532.148 399.9 532.148C407.69 532.148 413.893 534.241 418.51 538.428C423.27 542.471 425.651 547.957 425.651 554.886C425.651 559.362 424.569 563.332 422.405 566.797C420.241 570.262 417.211 572.933 413.316 574.81Z" fill="#27314B"/>
<path d="M370.038 531.282V522.62C370.038 521.6 370.055 520.597 370.087 519.611C369.755 519.944 369.427 520.284 369.105 520.63C366.157 523.797 363.655 527.492 361.599 531.715L371.337 540.81C370.616 537.634 370.183 534.458 370.038 531.282Z" fill="#27314B"/>
</svg>
