<svg width="400" height="407" viewBox="0 0 400 407" fill="none" xmlns="http://www.w3.org/2000/svg">
<path d="M38.1198 170.538L38.1198 44.4731L62.8099 44.4731L62.8099 170.538L38.1198 170.538Z" fill="white"/>
<path d="M107.533 170.538V0H131.877V149.343H224.14V170.538H107.533Z" fill="white"/>
<path d="M335.083 406.612C322.677 406.612 311.569 403.58 301.759 397.516C291.949 391.308 284.231 382.357 278.605 370.663C272.979 358.969 270.166 344.821 270.166 328.218C270.166 311.616 272.979 297.467 278.605 285.773C284.231 274.079 291.949 265.2 301.759 259.137C311.569 252.929 322.677 249.825 335.083 249.825C347.634 249.825 358.742 252.929 368.407 259.137C378.217 265.2 385.935 274.079 391.561 285.773C397.187 297.467 400 311.616 400 328.218C400 344.821 397.187 358.969 391.561 370.663C385.935 382.357 378.217 391.308 368.407 397.516C358.742 403.58 347.634 406.612 335.083 406.612ZM335.083 376.943C340.998 376.943 346.119 375.283 350.447 371.963C354.919 368.642 358.381 363.373 360.833 356.154C363.43 348.935 364.728 339.623 364.728 328.218C364.728 316.813 363.43 307.501 360.833 300.282C358.381 293.064 354.919 287.794 350.447 284.474C346.119 281.153 340.998 279.493 335.083 279.493C329.313 279.493 324.191 281.153 319.719 284.474C315.392 287.794 311.929 293.064 309.333 300.282C306.88 307.501 305.654 316.813 305.654 328.218C305.654 339.623 306.88 348.935 309.333 356.154C311.929 363.373 315.392 368.642 319.719 371.963C324.191 375.283 329.313 376.943 335.083 376.943Z" fill="white"/>
<path d="M36.3636 0H62.8099V17.0432L36.3636 26.4463V0Z" fill="#DC143C"/>
<path fill-rule="evenodd" clip-rule="evenodd" d="M249.641 0V170.538H273.984V118.889H316.099C331.03 118.889 343.77 116.534 354.319 111.824C364.868 106.952 372.983 100.13 378.663 91.3597C384.343 82.4268 387.183 71.7884 387.183 59.4447C387.183 47.101 384.343 36.4627 378.663 27.5297C372.983 18.5968 364.868 11.7753 354.319 7.06516C343.77 2.35505 331.03 0 316.099 0H249.641ZM273.984 97.694H315.369C330.949 97.694 342.715 94.3644 350.668 87.7053C358.782 81.0462 362.839 71.626 362.839 59.4447C362.839 47.2634 358.782 37.8432 350.668 31.1841C342.715 24.525 330.949 21.1955 315.369 21.1955C315.369 21.1955 290.146 21.1955 273.984 21.1955C273.984 16.4384 273.984 9.01416 273.984 9.01416L263.03 21.1955C263.03 21.1955 269.706 21.1955 273.984 21.1955C273.984 51.07 273.984 97.694 273.984 97.694Z" fill="white"/>
<path d="M273.984 9.01416L263.03 21.1955H273.984V9.01416Z" fill="white"/>
<path fill-rule="evenodd" clip-rule="evenodd" d="M26.3996 402.497C36.7863 405.24 47.2451 406.612 57.7761 406.612C72.2021 406.612 84.0314 404.302 93.264 399.682C102.497 395.062 109.349 389.071 113.821 381.708C118.293 374.2 120.529 366.188 120.529 357.67C120.529 344.532 115.769 333.776 106.247 325.403C99.5805 319.54 90.6856 315.729 79.5627 313.971L113.605 275.162V252.423H7.57364V280.576H72.0196L40.8977 315.874V339.046H56.9105C66.8645 339.046 74.0775 340.706 78.5495 344.027C83.0216 347.347 85.2576 351.895 85.2576 357.67C85.2576 363.733 82.7331 368.498 77.684 371.963C72.6349 375.427 65.7104 377.16 56.9105 377.16C49.1205 377.16 41.4026 375.933 33.7568 373.478C26.111 371.024 19.403 367.704 13.6326 363.517L0 390.37C7.213 395.567 16.0129 399.61 26.3996 402.497ZM86.9887 280.576H72.0196L83.0937 268.016L86.9887 280.576Z" fill="white"/>
<path d="M86.9887 280.576L83.0937 268.016L72.0196 280.576H86.9887Z" fill="white"/>
<path fill-rule="evenodd" clip-rule="evenodd" d="M166.143 397.949C176.386 403.724 188.432 406.612 202.281 406.612C213.1 406.612 222.765 404.59 231.277 400.548C239.932 396.361 246.785 390.514 251.834 383.007C257.027 375.355 259.624 366.404 259.624 356.154C259.624 346.625 257.244 338.324 252.483 331.25C247.867 324.176 241.664 318.69 233.873 314.792C226.083 310.894 217.284 308.945 207.474 308.945C200.261 308.945 193.625 309.955 187.566 311.976C181.651 313.853 176.53 316.741 172.202 320.639C171.475 321.27 170.77 321.927 170.087 322.611C170.555 308.506 174.361 297.742 181.507 290.321C189.153 282.38 199.54 278.41 212.667 278.41C217.861 278.41 222.838 278.988 227.598 280.143C232.359 281.153 236.831 283.102 241.014 285.99L253.998 260.219C248.66 256.755 242.313 254.156 234.955 252.423C227.598 250.691 219.88 249.825 211.802 249.825C196.654 249.825 183.238 253.001 171.553 259.353C160.012 265.706 150.924 274.945 144.288 287.072C137.796 299.2 134.551 313.998 134.551 331.467C134.551 347.78 137.291 361.496 142.773 372.612C148.255 383.729 156.045 392.174 166.143 397.949ZM170.038 325.62C170.038 324.6 170.055 323.597 170.087 322.611C169.755 322.944 169.427 323.284 169.105 323.63C166.157 326.797 163.655 330.492 161.599 334.715L171.337 343.81C170.616 340.634 170.183 337.458 170.038 334.282V325.62ZM213.316 377.81C209.566 379.542 205.238 380.408 200.333 380.408C194.707 380.408 189.946 379.47 186.051 377.593C182.156 375.572 179.127 372.901 176.963 369.58C174.799 366.116 173.717 362.218 173.717 357.886C173.717 353.411 174.799 349.513 176.963 346.192C179.271 342.727 182.373 340.057 186.268 338.18C190.163 336.159 194.707 335.148 199.9 335.148C207.69 335.148 213.893 337.241 218.51 341.428C223.27 345.471 225.651 350.957 225.651 357.886C225.651 362.362 224.569 366.332 222.405 369.797C220.241 373.262 217.211 375.933 213.316 377.81Z" fill="white"/>
<path d="M170.038 334.282V325.62C170.038 324.6 170.055 323.597 170.087 322.611C169.755 322.944 169.427 323.284 169.105 323.63C166.157 326.797 163.655 330.492 161.599 334.715L171.337 343.81C170.616 340.634 170.183 337.458 170.038 334.282Z" fill="white"/>
</svg>
