<svg width="56" height="54" viewBox="0 0 56 54" fill="none" xmlns="http://www.w3.org/2000/svg">
<path d="M56 32.1384V44.8C56 47.0278 55.115 49.1644 53.5397 50.7397C51.9644 52.315 49.8278 53.2 47.6 53.2H8.4C6.17218 53.2 4.03561 52.315 2.4603 50.7397C0.884998 49.1644 0 47.0278 0 44.8V32.1384L1.5484 32.914C9.755 37.0474 18.8161 39.2 28.0049 39.199C37.1936 39.198 46.2543 37.0436 54.46 32.9084L56 32.1384ZM33.6 0C35.8278 0 37.9644 0.884998 39.5397 2.4603C41.115 4.03561 42 6.17218 42 8.4V11.2H47.6C49.8278 11.2 51.9644 12.085 53.5397 13.6603C55.115 15.2356 56 17.3722 56 19.6V25.8776L51.9484 27.9048C44.6993 31.5591 36.71 33.5059 28.5924 33.5962C20.4748 33.6865 12.4442 31.9178 5.1156 28.4256L3.304 27.5296L0 25.8776V19.6C0 17.3722 0.884998 15.2356 2.4603 13.6603C4.03561 12.085 6.17218 11.2 8.4 11.2H14V8.4C14 6.17218 14.885 4.03561 16.4603 2.4603C18.0356 0.884998 20.1722 0 22.4 0H33.6ZM28 22.4C27.2574 22.4 26.5452 22.695 26.0201 23.2201C25.495 23.7452 25.2 24.4574 25.2 25.2C25.1982 25.5677 25.2688 25.9322 25.4078 26.2726C25.5468 26.613 25.7515 26.9227 26.0102 27.184C26.2689 27.4453 26.5765 27.6531 26.9156 27.7955C27.2546 27.9379 27.6183 28.0122 27.986 28.014C28.3537 28.0158 28.7182 27.9452 29.0586 27.8062C29.399 27.6672 29.7087 27.4625 29.97 27.2038C30.2313 26.9451 30.4391 26.6375 30.5815 26.2984C30.7239 25.9594 30.7982 25.5957 30.8 25.228C30.8 23.6544 29.5456 22.4 28 22.4ZM33.6 5.6H22.4C21.6574 5.6 20.9452 5.895 20.4201 6.4201C19.895 6.9452 19.6 7.65739 19.6 8.4V11.2H36.4V8.4C36.4 7.65739 36.105 6.9452 35.5799 6.4201C35.0548 5.895 34.3426 5.6 33.6 5.6Z" fill="#5576D9"/>
</svg>
