<svg width="19" height="14" viewBox="0 0 19 14" fill="none" xmlns="http://www.w3.org/2000/svg">
<path d="M8.3125 14C8.3125 14 7.125 14 7.125 12.8333C7.125 11.6667 8.3125 8.16667 13.0625 8.16667C17.8125 8.16667 19 11.6667 19 12.8333C19 14 17.8125 14 17.8125 14H8.3125ZM13.0625 7C14.0073 7 14.9135 6.63125 15.5816 5.97487C16.2497 5.3185 16.625 4.42826 16.625 3.5C16.625 2.57174 16.2497 1.6815 15.5816 1.02513C14.9135 0.368749 14.0073 0 13.0625 0C12.1177 0 11.2115 0.368749 10.5434 1.02513C9.87533 1.6815 9.5 2.57174 9.5 3.5C9.5 4.42826 9.87533 5.3185 10.5434 5.97487C11.2115 6.63125 12.1177 7 13.0625 7ZM6.194 14C6.01804 13.6358 5.93025 13.2365 5.9375 12.8333C5.9375 11.2525 6.745 9.625 8.2365 8.49333C7.49215 8.26751 6.71647 8.15729 5.9375 8.16667C1.1875 8.16667 0 11.6667 0 12.8333C0 14 1.1875 14 1.1875 14H6.194ZM5.34375 7C6.13111 7 6.88622 6.69271 7.44297 6.14573C7.99972 5.59875 8.3125 4.85688 8.3125 4.08333C8.3125 3.30978 7.99972 2.56792 7.44297 2.02094C6.88622 1.47396 6.13111 1.16667 5.34375 1.16667C4.55639 1.16667 3.80128 1.47396 3.24453 2.02094C2.68778 2.56792 2.375 3.30978 2.375 4.08333C2.375 4.85688 2.68778 5.59875 3.24453 6.14573C3.80128 6.69271 4.55639 7 5.34375 7Z" fill="#27314B"/>
</svg>
