<svg width="56" height="42" viewBox="0 0 56 42" fill="none" xmlns="http://www.w3.org/2000/svg">
<path d="M28 24.7044C31.3624 24.7044 34.4059 23.321 36.6094 21.0852C38.8104 18.8519 40.1739 15.7639 40.1739 12.3522C40.1739 8.94053 38.8104 5.85248 36.6094 3.6192C34.4059 1.38345 31.3624 0 28 0C24.6376 0 21.5941 1.38345 19.3906 3.6192C17.1896 5.85248 15.8261 8.94053 15.8261 12.3522C15.8261 15.7639 17.1896 18.8519 19.3906 21.0852C20.5199 22.2343 21.8618 23.1455 23.3393 23.7666C24.8168 24.3877 26.4007 24.7064 28 24.7044ZM47.4783 27.1749C48.2781 27.1765 49.0703 27.0179 49.8095 26.7081C50.5488 26.3983 51.2204 25.9434 51.786 25.3696C52.3515 24.7957 52.7998 24.1142 53.1051 23.3642C53.4105 22.6141 53.5668 21.8103 53.5652 20.9988C53.5652 19.2942 52.8859 17.7501 51.783 16.631C51.2183 16.0567 50.5472 15.6012 49.8085 15.2909C49.0697 14.9806 48.2778 14.8214 47.4783 14.8227C46.6785 14.821 45.8862 14.9797 45.147 15.2895C44.4078 15.5993 43.7361 16.0541 43.1706 16.628C42.605 17.2018 42.1567 17.8833 41.8514 18.6333C41.5461 19.3834 41.3897 20.1873 41.3913 20.9988C41.39 21.8102 41.5466 22.6139 41.852 23.3638C42.1575 24.1137 42.6058 24.7951 43.1713 25.3688C43.7368 25.9426 44.4083 26.3975 45.1474 26.7074C45.8865 27.0173 46.6786 27.1762 47.4783 27.1749ZM47.4783 28.6324C44.2376 28.6324 41.8004 29.6354 40.376 31.0238C37.6612 28.7584 33.3687 27.1749 28 27.1749C22.4828 27.1749 18.273 28.7757 15.6021 31.0386C14.151 29.6428 11.687 28.6324 8.52174 28.6324C3.19444 28.6324 0 31.3252 0 34.0229C0 35.3693 3.19444 36.7207 8.52174 36.7207C9.99235 36.7207 11.312 36.5947 12.4734 36.3921L12.376 37.0591C12.376 39.5296 18.2341 42 28 42C37.1597 42 43.624 39.5296 43.624 37.0591L43.5753 36.4292C44.7026 36.6095 45.9979 36.7207 47.4783 36.7207C52.472 36.7207 56 35.3693 56 34.0229C56 31.3252 52.657 28.6324 47.4783 28.6324ZM8.52174 27.1749C10.2017 27.1749 11.7235 26.4856 12.8264 25.3665C13.3925 24.7935 13.8414 24.1127 14.1472 23.3631C14.4531 22.6136 14.6099 21.81 14.6087 20.9988C14.6103 20.1873 14.454 19.3834 14.1486 18.6333C13.8433 17.8833 13.395 17.2018 12.8294 16.628C12.2639 16.0541 11.5922 15.5993 10.853 15.2895C10.1138 14.9797 9.32154 14.821 8.52174 14.8227C7.72203 14.8214 6.92993 14.9802 6.19085 15.2901C5.45176 15.6001 4.78023 16.0549 4.21475 16.6287C3.64927 17.2025 3.20096 17.8838 2.89551 18.6337C2.59007 19.3836 2.4335 20.1873 2.43478 20.9988C2.43318 21.8103 2.58953 22.6141 2.89486 23.3642C3.20019 24.1142 3.64849 24.7957 4.21403 25.3696C4.77958 25.9434 5.45124 26.3983 6.19047 26.7081C6.92969 27.0179 7.72194 27.1765 8.52174 27.1749Z" fill="#5576D9"/>
</svg>
